<svg width="4260" height="1772" viewBox="0 0 4260 1772" fill="none" xmlns="http://www.w3.org/2000/svg" xmlns:xlink="http://www.w3.org/1999/xlink">
<line y1="3" x2="4260" y2="3" stroke="black" stroke-width="6"/>
<path d="M14.446 139.476V183H3.844V139.476H14.446ZM71.4192 139.476V183H60.8172V156.898L51.0832 183H42.5272L32.7312 156.836V183H22.1292V139.476H34.6532L46.8672 169.608L58.9572 139.476H71.4192ZM106.137 175.312H89.8932L87.2892 183H76.1912L91.9392 139.476H104.215L119.963 183H108.741L106.137 175.312ZM103.409 167.128L98.0152 151.194L92.6832 167.128H103.409ZM153.648 153.24C152.863 151.793 151.726 150.698 150.238 149.954C148.791 149.169 147.076 148.776 145.092 148.776C141.661 148.776 138.913 149.913 136.846 152.186C134.779 154.418 133.746 157.415 133.746 161.176C133.746 165.185 134.821 168.327 136.97 170.6C139.161 172.832 142.157 173.948 145.96 173.948C148.564 173.948 150.755 173.287 152.532 171.964C154.351 170.641 155.673 168.74 156.5 166.26H143.046V158.448H166.11V168.306C165.325 170.951 163.981 173.411 162.08 175.684C160.22 177.957 157.843 179.797 154.95 181.202C152.057 182.607 148.791 183.31 145.154 183.31C140.855 183.31 137.011 182.38 133.622 180.52C130.274 178.619 127.649 175.994 125.748 172.646C123.888 169.298 122.958 165.475 122.958 161.176C122.958 156.877 123.888 153.054 125.748 149.706C127.649 146.317 130.274 143.692 133.622 141.832C136.97 139.931 140.793 138.98 145.092 138.98C150.3 138.98 154.681 140.241 158.236 142.762C161.832 145.283 164.209 148.776 165.366 153.24H153.648ZM182.585 147.97V156.774H196.783V164.958H182.585V174.506H198.643V183H171.983V139.476H198.643V147.97H182.585ZM244.462 183H233.86L216.128 156.154V183H205.526V139.476H216.128L233.86 166.446V139.476H244.462V183ZM267.895 183.434C264.712 183.434 261.86 182.917 259.339 181.884C256.817 180.851 254.792 179.321 253.263 177.296C251.775 175.271 250.989 172.832 250.907 169.98H262.191C262.356 171.592 262.914 172.832 263.865 173.7C264.815 174.527 266.055 174.94 267.585 174.94C269.155 174.94 270.395 174.589 271.305 173.886C272.214 173.142 272.669 172.129 272.669 170.848C272.669 169.773 272.297 168.885 271.553 168.182C270.85 167.479 269.961 166.901 268.887 166.446C267.853 165.991 266.365 165.475 264.423 164.896C261.612 164.028 259.318 163.16 257.541 162.292C255.763 161.424 254.234 160.143 252.953 158.448C251.671 156.753 251.031 154.542 251.031 151.814C251.031 147.763 252.498 144.601 255.433 142.328C258.367 140.013 262.191 138.856 266.903 138.856C271.697 138.856 275.562 140.013 278.497 142.328C281.431 144.601 283.002 147.784 283.209 151.876H271.739C271.656 150.471 271.139 149.375 270.189 148.59C269.238 147.763 268.019 147.35 266.531 147.35C265.249 147.35 264.216 147.701 263.431 148.404C262.645 149.065 262.253 150.037 262.253 151.318C262.253 152.723 262.914 153.819 264.237 154.604C265.559 155.389 267.626 156.237 270.437 157.146C273.247 158.097 275.521 159.006 277.257 159.874C279.034 160.742 280.563 162.003 281.845 163.656C283.126 165.309 283.767 167.438 283.767 170.042C283.767 172.522 283.126 174.775 281.845 176.8C280.605 178.825 278.786 180.437 276.389 181.636C273.991 182.835 271.16 183.434 267.895 183.434ZM319.736 139.476C324.324 139.476 328.333 140.385 331.764 142.204C335.195 144.023 337.84 146.585 339.7 149.892C341.601 153.157 342.552 156.939 342.552 161.238C342.552 165.495 341.601 169.277 339.7 172.584C337.84 175.891 335.174 178.453 331.702 180.272C328.271 182.091 324.283 183 319.736 183H303.43V139.476H319.736ZM319.054 173.824C323.063 173.824 326.184 172.729 328.416 170.538C330.648 168.347 331.764 165.247 331.764 161.238C331.764 157.229 330.648 154.108 328.416 151.876C326.184 149.644 323.063 148.528 319.054 148.528H314.032V173.824H319.054ZM369.061 183.434C364.969 183.434 361.207 182.483 357.777 180.582C354.387 178.681 351.68 176.035 349.655 172.646C347.671 169.215 346.679 165.371 346.679 161.114C346.679 156.857 347.671 153.033 349.655 149.644C351.68 146.255 354.387 143.609 357.777 141.708C361.207 139.807 364.969 138.856 369.061 138.856C373.153 138.856 376.893 139.807 380.283 141.708C383.713 143.609 386.4 146.255 388.343 149.644C390.327 153.033 391.319 156.857 391.319 161.114C391.319 165.371 390.327 169.215 388.343 172.646C386.359 176.035 383.672 178.681 380.283 180.582C376.893 182.483 373.153 183.434 369.061 183.434ZM369.061 173.762C372.533 173.762 375.302 172.605 377.369 170.29C379.477 167.975 380.531 164.917 380.531 161.114C380.531 157.27 379.477 154.211 377.369 151.938C375.302 149.623 372.533 148.466 369.061 148.466C365.547 148.466 362.737 149.603 360.629 151.876C358.562 154.149 357.529 157.229 357.529 161.114C357.529 164.958 358.562 168.037 360.629 170.352C362.737 172.625 365.547 173.762 369.061 173.762ZM426.104 183.434C422.921 183.434 420.069 182.917 417.548 181.884C415.026 180.851 413.001 179.321 411.472 177.296C409.984 175.271 409.198 172.832 409.116 169.98H420.4C420.565 171.592 421.123 172.832 422.074 173.7C423.024 174.527 424.264 174.94 425.794 174.94C427.364 174.94 428.604 174.589 429.514 173.886C430.423 173.142 430.878 172.129 430.878 170.848C430.878 169.773 430.506 168.885 429.762 168.182C429.059 167.479 428.17 166.901 427.096 166.446C426.062 165.991 424.574 165.475 422.632 164.896C419.821 164.028 417.527 163.16 415.75 162.292C413.972 161.424 412.443 160.143 411.162 158.448C409.88 156.753 409.24 154.542 409.24 151.814C409.24 147.763 410.707 144.601 413.642 142.328C416.576 140.013 420.4 138.856 425.112 138.856C429.906 138.856 433.771 140.013 436.706 142.328C439.64 144.601 441.211 147.784 441.418 151.876H429.948C429.865 150.471 429.348 149.375 428.398 148.59C427.447 147.763 426.228 147.35 424.74 147.35C423.458 147.35 422.425 147.701 421.64 148.404C420.854 149.065 420.462 150.037 420.462 151.318C420.462 152.723 421.123 153.819 422.446 154.604C423.768 155.389 425.835 156.237 428.646 157.146C431.456 158.097 433.73 159.006 435.466 159.874C437.243 160.742 438.772 162.003 440.054 163.656C441.335 165.309 441.976 167.438 441.976 170.042C441.976 172.522 441.335 174.775 440.054 176.8C438.814 178.825 436.995 180.437 434.598 181.636C432.2 182.835 429.369 183.434 426.104 183.434ZM459.102 139.476V183H448.5V139.476H459.102ZM498.095 139.476V147.97H486.563V183H475.961V147.97H464.429V139.476H498.095ZM514.018 147.97V156.774H528.216V164.958H514.018V174.506H530.076V183H503.416V139.476H530.076V147.97H514.018ZM576.758 156.836V165.64H549.478V156.836H576.758ZM609.803 174.816H623.691V183H599.201V139.476H609.803V174.816ZM639.35 139.476V183H628.748V139.476H639.35ZM687.891 139.476L672.453 183H659.185L643.747 139.476H655.031L665.819 172.336L676.669 139.476H687.891ZM714.519 183L705.467 166.57H702.925V183H692.323V139.476H710.117C713.547 139.476 716.461 140.075 718.859 141.274C721.297 142.473 723.116 144.126 724.315 146.234C725.513 148.301 726.113 150.615 726.113 153.178C726.113 156.071 725.286 158.655 723.633 160.928C722.021 163.201 719.623 164.813 716.441 165.764L726.485 183H714.519ZM702.925 159.068H709.497C711.439 159.068 712.886 158.593 713.837 157.642C714.829 156.691 715.325 155.348 715.325 153.612C715.325 151.959 714.829 150.657 713.837 149.706C712.886 148.755 711.439 148.28 709.497 148.28H702.925V159.068ZM753.352 183.434C749.26 183.434 745.498 182.483 742.068 180.582C738.678 178.681 735.971 176.035 733.946 172.646C731.962 169.215 730.97 165.371 730.97 161.114C730.97 156.857 731.962 153.033 733.946 149.644C735.971 146.255 738.678 143.609 742.068 141.708C745.498 139.807 749.26 138.856 753.352 138.856C757.444 138.856 761.184 139.807 764.574 141.708C768.004 143.609 770.691 146.255 772.634 149.644C774.618 153.033 775.61 156.857 775.61 161.114C775.61 165.371 774.618 169.215 772.634 172.646C770.65 176.035 767.963 178.681 764.574 180.582C761.184 182.483 757.444 183.434 753.352 183.434ZM753.352 173.762C756.824 173.762 759.593 172.605 761.66 170.29C763.768 167.975 764.822 164.917 764.822 161.114C764.822 157.27 763.768 154.211 761.66 151.938C759.593 149.623 756.824 148.466 753.352 148.466C749.838 148.466 747.028 149.603 744.92 151.876C742.853 154.149 741.82 157.229 741.82 161.114C741.82 164.958 742.853 168.037 744.92 170.352C747.028 172.625 749.838 173.762 753.352 173.762ZM797.256 183.434C794.073 183.434 791.221 182.917 788.7 181.884C786.179 180.851 784.153 179.321 782.624 177.296C781.136 175.271 780.351 172.832 780.268 169.98H791.552C791.717 171.592 792.275 172.832 793.226 173.7C794.177 174.527 795.417 174.94 796.946 174.94C798.517 174.94 799.757 174.589 800.666 173.886C801.575 173.142 802.03 172.129 802.03 170.848C802.03 169.773 801.658 168.885 800.914 168.182C800.211 167.479 799.323 166.901 798.248 166.446C797.215 165.991 795.727 165.475 793.784 164.896C790.973 164.028 788.679 163.16 786.902 162.292C785.125 161.424 783.595 160.143 782.314 158.448C781.033 156.753 780.392 154.542 780.392 151.814C780.392 147.763 781.859 144.601 784.794 142.328C787.729 140.013 791.552 138.856 796.264 138.856C801.059 138.856 804.923 140.013 807.858 142.328C810.793 144.601 812.363 147.784 812.57 151.876H801.1C801.017 150.471 800.501 149.375 799.55 148.59C798.599 147.763 797.38 147.35 795.892 147.35C794.611 147.35 793.577 147.701 792.792 148.404C792.007 149.065 791.614 150.037 791.614 151.318C791.614 152.723 792.275 153.819 793.598 154.604C794.921 155.389 796.987 156.237 799.798 157.146C802.609 158.097 804.882 159.006 806.618 159.874C808.395 160.742 809.925 162.003 811.206 163.656C812.487 165.309 813.128 167.438 813.128 170.042C813.128 172.522 812.487 174.775 811.206 176.8C809.966 178.825 808.147 180.437 805.75 181.636C803.353 182.835 800.521 183.434 797.256 183.434Z" fill="black"/>
<path d="M33.938 1334.31H17.694L15.09 1342H3.992L19.74 1298.48H32.016L47.764 1342H36.542L33.938 1334.31ZM31.21 1326.13L25.816 1310.19L20.484 1326.13H31.21ZM73.6369 1307.03C77.6876 1307.03 80.9116 1308.35 83.3089 1311C85.7476 1313.6 86.9669 1317.2 86.9669 1321.79V1342H76.4269V1323.21C76.4269 1320.9 75.8276 1319.1 74.6289 1317.82C73.4302 1316.54 71.8182 1315.9 69.7929 1315.9C67.7676 1315.9 66.1556 1316.54 64.9569 1317.82C63.7582 1319.1 63.1589 1320.9 63.1589 1323.21V1342H52.5569V1307.4H63.1589V1311.99C64.2336 1310.46 65.6802 1309.26 67.4989 1308.4C69.3176 1307.49 71.3636 1307.03 73.6369 1307.03ZM107.478 1306.91C109.917 1306.91 112.046 1307.4 113.864 1308.4C115.724 1309.39 117.15 1310.69 118.142 1312.3V1307.4H128.744V1341.94C128.744 1345.12 128.104 1347.99 126.822 1350.56C125.582 1353.16 123.66 1355.23 121.056 1356.76C118.494 1358.29 115.29 1359.05 111.446 1359.05C106.321 1359.05 102.167 1357.83 98.9842 1355.39C95.8016 1352.99 93.9829 1349.73 93.5282 1345.6H104.006C104.337 1346.92 105.122 1347.95 106.362 1348.7C107.602 1349.48 109.132 1349.87 110.95 1349.87C113.141 1349.87 114.877 1349.23 116.158 1347.95C117.481 1346.71 118.142 1344.71 118.142 1341.94V1337.04C117.109 1338.65 115.683 1339.97 113.864 1341.01C112.046 1342 109.917 1342.5 107.478 1342.5C104.626 1342.5 102.043 1341.77 99.7282 1340.33C97.4136 1338.84 95.5742 1336.75 94.2102 1334.06C92.8876 1331.34 92.2262 1328.19 92.2262 1324.64C92.2262 1321.09 92.8876 1317.96 94.2102 1315.28C95.5742 1312.59 97.4136 1310.52 99.7282 1309.08C102.043 1307.63 104.626 1306.91 107.478 1306.91ZM118.142 1324.7C118.142 1322.06 117.398 1319.97 115.91 1318.44C114.464 1316.91 112.686 1316.15 110.578 1316.15C108.47 1316.15 106.672 1316.91 105.184 1318.44C103.738 1319.93 103.014 1321.99 103.014 1324.64C103.014 1327.29 103.738 1329.39 105.184 1330.96C106.672 1332.49 108.47 1333.26 110.578 1333.26C112.686 1333.26 114.464 1332.49 115.91 1330.96C117.398 1329.43 118.142 1327.35 118.142 1324.7ZM170.576 1307.4V1342H159.974V1337.29C158.9 1338.82 157.432 1340.06 155.572 1341.01C153.754 1341.92 151.728 1342.37 149.496 1342.37C146.851 1342.37 144.516 1341.79 142.49 1340.64C140.465 1339.44 138.894 1337.72 137.778 1335.49C136.662 1333.26 136.104 1330.63 136.104 1327.62V1307.4H146.644V1326.19C146.644 1328.5 147.244 1330.3 148.442 1331.58C149.641 1332.87 151.253 1333.51 153.278 1333.51C155.345 1333.51 156.978 1332.87 158.176 1331.58C159.375 1330.3 159.974 1328.5 159.974 1326.19V1307.4H170.576ZM188.794 1296.12V1342H178.192V1296.12H188.794ZM194.369 1324.64C194.369 1321.09 195.03 1317.96 196.353 1315.28C197.717 1312.59 199.556 1310.52 201.871 1309.08C204.185 1307.63 206.769 1306.91 209.621 1306.91C212.059 1306.91 214.188 1307.4 216.007 1308.4C217.867 1309.39 219.293 1310.69 220.285 1312.3V1307.4H230.887V1342H220.285V1337.1C219.251 1338.71 217.805 1340.02 215.945 1341.01C214.126 1342 211.997 1342.5 209.559 1342.5C206.748 1342.5 204.185 1341.77 201.871 1340.33C199.556 1338.84 197.717 1336.75 196.353 1334.06C195.03 1331.34 194.369 1328.19 194.369 1324.64ZM220.285 1324.7C220.285 1322.06 219.541 1319.97 218.053 1318.44C216.606 1316.91 214.829 1316.15 212.721 1316.15C210.613 1316.15 208.815 1316.91 207.327 1318.44C205.88 1319.93 205.157 1321.99 205.157 1324.64C205.157 1327.29 205.88 1329.39 207.327 1330.96C208.815 1332.49 210.613 1333.26 212.721 1333.26C214.829 1333.26 216.606 1332.49 218.053 1330.96C219.541 1329.43 220.285 1327.35 220.285 1324.7ZM249.159 1313.17C250.399 1311.27 251.949 1309.78 253.809 1308.71C255.669 1307.59 257.736 1307.03 260.009 1307.03V1318.25H257.095C254.45 1318.25 252.466 1318.83 251.143 1319.99C249.82 1321.11 249.159 1323.09 249.159 1325.94V1342H238.557V1307.4H249.159V1313.17Z" fill="black"/>
<rect y="291" width="245.169" height="345" fill="url(#pattern0)"/>
<rect x="689.873" y="291" width="245.224" height="345" fill="url(#pattern1)"/>
<rect x="1035.1" y="291" width="245.575" height="345" fill="url(#pattern2)"/>
<rect x="1380.67" y="291" width="244.873" height="345" fill="url(#pattern3)"/>
<rect x="1725.54" y="291" width="241.711" height="345" fill="url(#pattern4)"/>
<rect x="2067.26" y="291" width="244.873" height="345" fill="url(#pattern5)"/>
<rect x="2061.62" y="745" width="244.375" height="345" fill="url(#pattern6)"/>
<rect x="345" y="291" width="244.873" height="345" fill="url(#pattern7)"/>
<rect x="345" y="745" width="244.375" height="345" fill="url(#pattern8)"/>
<rect x="689.375" y="745" width="244.726" height="345" fill="url(#pattern9)"/>
<rect x="1034.1" y="745" width="241.22" height="345" fill="url(#pattern10)"/>
<rect x="1375.32" y="745" width="245.076" height="345" fill="url(#pattern11)"/>
<rect x="1720.4" y="745" width="241.22" height="345" fill="url(#pattern12)"/>
<rect y="1427" width="241.465" height="345" fill="url(#pattern13)"/>
<rect x="341.465" y="1427" width="245.326" height="345" fill="url(#pattern14)"/>
<rect x="686.79" y="1427" width="244.624" height="345" fill="url(#pattern15)"/>
<rect x="1031.41" y="1427" width="241.816" height="345" fill="url(#pattern16)"/>
<defs>
<pattern id="pattern0" patternContentUnits="objectBoundingBox" width="1" height="1">
<use xlink:href="#image0_601_3917" transform="scale(0.00293255 0.00208397)"/>
</pattern>
<pattern id="pattern1" patternContentUnits="objectBoundingBox" width="1" height="1">
<use xlink:href="#image1_601_3917" transform="matrix(0.00293255 0 0 0.00208444 0 -0.000265775)"/>
</pattern>
<pattern id="pattern2" patternContentUnits="objectBoundingBox" width="1" height="1">
<use xlink:href="#image2_601_3917" transform="matrix(0.00293255 0 0 0.00208743 0 -0.000982508)"/>
</pattern>
<pattern id="pattern3" patternContentUnits="objectBoundingBox" width="1" height="1">
<use xlink:href="#image3_601_3917" transform="matrix(0.0029352 0 0 0.00208333 -0.000451334 0)"/>
</pattern>
<pattern id="pattern4" patternContentUnits="objectBoundingBox" width="1" height="1">
<use xlink:href="#image4_601_3917" transform="matrix(0.00297619 0 0 0.00208515 0 -0.000436439)"/>
</pattern>
<pattern id="pattern5" patternContentUnits="objectBoundingBox" width="1" height="1">
<use xlink:href="#image5_601_3917" transform="matrix(0.0029352 0 0 0.00208333 -0.000451334 0)"/>
</pattern>
<pattern id="pattern6" patternContentUnits="objectBoundingBox" width="1" height="1">
<use xlink:href="#image6_601_3917" transform="scale(0.00294118 0.00208333)"/>
</pattern>
<pattern id="pattern7" patternContentUnits="objectBoundingBox" width="1" height="1">
<use xlink:href="#image7_601_3917" transform="matrix(0.0029352 0 0 0.00208333 -0.000451334 0)"/>
</pattern>
<pattern id="pattern8" patternContentUnits="objectBoundingBox" width="1" height="1">
<use xlink:href="#image8_601_3917" transform="matrix(0.00294118 0 0 0.00208333 -0.00147059 0)"/>
</pattern>
<pattern id="pattern9" patternContentUnits="objectBoundingBox" width="1" height="1">
<use xlink:href="#image9_601_3917" transform="matrix(0.00293696 0 0 0.00208333 -0.000752135 0)"/>
</pattern>
<pattern id="pattern10" patternContentUnits="objectBoundingBox" width="1" height="1">
<use xlink:href="#image10_601_3917" transform="matrix(0.00297965 0 0 0.00208333 -0.000581394 0)"/>
</pattern>
<pattern id="pattern11" patternContentUnits="objectBoundingBox" width="1" height="1">
<use xlink:href="#image11_601_3917" transform="scale(0.00293276 0.00208333)"/>
</pattern>
<pattern id="pattern12" patternContentUnits="objectBoundingBox" width="1" height="1">
<use xlink:href="#image12_601_3917" transform="matrix(0.00297965 0 0 0.00208333 -0.000581394 0)"/>
</pattern>
<pattern id="pattern13" patternContentUnits="objectBoundingBox" width="1" height="1">
<use xlink:href="#image13_601_3917" transform="scale(0.00297662 0.00208333)"/>
</pattern>
<pattern id="pattern14" patternContentUnits="objectBoundingBox" width="1" height="1">
<use xlink:href="#image14_601_3917" transform="matrix(0.00293255 0 0 0.0020853 0 -0.000472842)"/>
</pattern>
<pattern id="pattern15" patternContentUnits="objectBoundingBox" width="1" height="1">
<use xlink:href="#image15_601_3917" transform="matrix(0.00293819 0 0 0.00208333 -0.000960974 0)"/>
</pattern>
<pattern id="pattern16" patternContentUnits="objectBoundingBox" width="1" height="1">
<use xlink:href="#image16_601_3917" transform="matrix(0.00297619 0 0 0.00208606 0 -0.00065398)"/>
</pattern>

</defs>
</svg>
